[Header]                  # Header keywords are followed by a single value
FileType htr              # single word string
DataType HTRS             # Hierarchical translations followed by rotations and Scale
FileVersion 1             # integer
NumSegments   22        # integer
NumFrames  4          # integer
DataFrameRate    60      # integer
EulerRotationOrder ZYX    # one word string
CalibrationUnits mm   # one word string
RotationUnits Degrees     # one word string
GlobalAxisofGravity Y        # character, X or Y or Z
BoneLengthAxis Y
ScaleFactor 1.0000
[SegmentNames&Hierarchy]
#CHILD         PARENT
LowerTorso	GLOBAL
MidTorso1	LowerTorso
MidTorso2	MidTorso1
UpperTorso	MidTorso2
Neck	UpperTorso
Head	Neck
LCollar	UpperTorso
LUpArm	LCollar
LLowArm	LUpArm
LHand	LLowArm
RCollar	UpperTorso
RUpArm	RCollar
RLowArm	RUpArm
RHand	RLowArm
RThigh	LowerTorso
RLowLeg	RThigh
RFoot	RLowLeg
RToe	RFoot
LThigh	LowerTorso
LLowLeg	LThigh
LFoot	LLowLeg
LToe	LFoot
[BasePosition]
#SegmentName Tx, Ty, Tz, Rx, Ry, Rz, BoneLength
LowerTorso	245.857281	950.546486	248.637529	3.098927	-0.002210	0.042162	59.711333	
MidTorso1	0.000000	59.711333	0.000000	12.937915	-0.002675	-0.030860	59.789096	
MidTorso2	0.000000	59.789096	0.000000	-8.588562	0.003459	0.011437	83.428957	
UpperTorso	0.000000	83.428957	0.000000	-7.932331	-0.001012	-0.030752	241.957510	
Neck	0.000000	241.957510	0.000000	-0.094097	0.000027	0.097203	231.829248	
Head	0.000000	231.829248	0.000000	90.077927	-0.000108	-0.089730	91.574582	
LCollar	6.813599	237.360039	0.023153	2.387721	-0.015547	-90.013255	183.371476	
LUpArm	0.000000	183.371476	0.000000	5.326590	-0.698152	6.338799	275.550262	
LLowArm	0.000000	275.550262	0.000000	0.023606	-0.000027	0.019344	209.826044	
LHand	0.000000	209.826044	0.000000	0.056212	0.000012	-0.012212	145.298309	
RCollar	-7.320367	237.102711	-0.039007	12.450709	0.004248	90.115141	167.861514	
RUpArm	0.000000	167.861514	0.000000	-6.122028	-0.820027	-2.646363	291.470253	
RLowArm	0.000000	291.470253	0.000000	0.000001	0.000000	-0.000274	217.757286	
RHand	0.000000	217.757286	0.000000	0.000373	0.000000	0.000511	137.536656	
RThigh	-124.450736	-52.205152	84.621319	5.924306	0.309605	177.207098	421.029795	
RLowLeg	0.000000	421.029795	0.000000	-15.759515	-0.017515	3.120486	365.105663	
RFoot	0.000000	365.105663	0.000000	55.897303	0.149984	-4.373210	148.323736	
RToe	0.000000	148.323736	0.000000	45.100933	2.167436	3.449341	115.306227	
LThigh	124.374466	-52.388373	84.621456	5.928259	-0.221338	-178.140447	426.796764	
LLowLeg	0.000000	426.796764	0.000000	-15.759694	0.017551	-3.120303	361.153822	
LFoot	0.000000	361.153822	0.000000	55.897848	-0.150027	4.373120	146.718976	
LToe	0.000000	146.718976	0.000000	45.100748	-2.167253	-3.449489	114.060784	
#Beginning of Data. Separated by tabs
[LowerTorso]
#Fr     Tx      Ty      Tz      Rx      Ry      Rz      SF
571	-115.163139	-2.230331	758.140076	-2.649014	31.078621	-4.936610	1.000000	
572	-115.783028	4.988039	762.765869	-2.658177	31.316681	-5.056194	1.000000	
573	-117.544174	12.325519	767.877930	-2.580818	31.937815	-5.137504	1.000000	
574	-120.486229	19.023977	773.308777	-2.395538	32.940208	-5.180264	1.000000	
[MidTorso1]
#Fr     Tx      Ty      Tz      Rx      Ry      Rz      SF
571	0.000000	0.000000	0.000000	5.598826	-2.903972	0.382783	1.000000	
572	0.000000	0.000000	0.000000	5.394062	-2.672792	0.438194	1.000000	
573	0.000000	0.000000	0.000000	5.138833	-2.505579	0.462307	1.000000	
574	0.000000	0.000000	0.000000	4.836137	-2.441555	0.453694	1.000000	
[MidTorso2]
#Fr     Tx      Ty      Tz      Rx      Ry      Rz      SF
571	0.000000	0.000000	0.000000	5.609340	-2.929707	-0.055432	1.000000	
572	0.000000	0.000000	0.000000	5.402919	-2.709358	0.033960	1.000000	
573	0.000000	0.000000	0.000000	5.146572	-2.547571	0.082822	1.000000	
574	0.000000	0.000000	0.000000	4.843471	-2.482918	0.083880	1.000000	
[UpperTorso]
#Fr     Tx      Ty      Tz      Rx      Ry      Rz      SF
571	0.000000	0.000000	0.000000	5.621079	-2.891020	-0.459130	1.000000	
572	0.000000	0.000000	0.000000	5.413146	-2.685230	-0.340133	1.000000	
573	0.000000	0.000000	0.000000	5.155732	-2.531873	-0.269390	1.000000	
574	0.000000	0.000000	0.000000	4.852208	-2.468145	-0.259432	1.000000	
[Neck]
#Fr     Tx      Ty      Tz      Rx      Ry      Rz      SF
571	0.000000	0.000000	0.000000	-7.674575	-8.950772	5.028394	1.000000	
572	0.000000	0.000000	0.000000	-7.053566	-9.591886	4.880373	1.000000	
573	0.000000	0.000000	0.000000	-6.315113	-10.268459	4.738512	1.000000	
574	0.000000	0.000000	0.000000	-5.524961	-10.942336	4.646409	1.000000	
[Head]
#Fr     Tx      Ty      Tz      Rx      Ry      Rz      SF
571	0.000000	0.000000	0.000000	-1.347500	1.678348	-0.102532	1.000000	
572	0.000000	0.000000	0.000000	-1.479043	1.551755	-0.116696	1.000000	
573	0.000000	0.000000	0.000000	-1.629324	1.440278	-0.134027	1.000000	
574	0.000000	0.000000	0.000000	-1.655396	1.388855	-0.145860	1.000000	
[LCollar]
#Fr     Tx      Ty      Tz      Rx      Ry      Rz      SF
571	0.000000	0.000000	0.000000	7.758811	1.369681	-9.950273	1.000000	
572	0.000000	0.000000	0.000000	7.522807	1.340837	-10.048029	1.000000	
573	0.000000	0.000000	0.000000	7.273392	1.278704	-9.917487	1.000000	
574	0.000000	0.000000	0.000000	7.052213	1.192335	-9.547909	1.000000	
[LUpArm]
#Fr     Tx      Ty      Tz      Rx      Ry      Rz      SF
571	0.000000	0.000000	0.000000	43.861061	21.711967	-48.347626	1.000000	
572	0.000000	0.000000	0.000000	43.433708	23.936903	-48.654190	1.000000	
573	0.000000	0.000000	0.000000	43.294418	26.094633	-48.803387	1.000000	
574	0.000000	0.000000	0.000000	43.529640	27.891882	-48.700340	1.000000	
[LLowArm]
#Fr     Tx      Ty      Tz      Rx      Ry      Rz      SF
571	0.000000	0.000000	0.000000	110.811440	-0.011462	-0.016724	1.000000	
572	0.000000	0.000000	0.000000	111.148140	-0.011436	-0.016792	1.000000	
573	0.000000	0.000000	0.000000	111.500694	-0.011408	-0.016862	1.000000	
574	0.000000	0.000000	0.000000	111.954536	-0.011372	-0.016953	1.000000	
[LHand]
#Fr     Tx      Ty      Tz      Rx      Ry      Rz      SF
571	0.000000	0.000000	0.000000	13.361154	4.181006	7.580347	1.000000	
572	0.000000	0.000000	0.000000	13.837651	4.517509	7.377997	1.000000	
573	0.000000	0.000000	0.000000	14.299437	5.385405	7.322658	1.000000	
574	0.000000	0.000000	0.000000	14.567615	6.809893	7.355687	1.000000	
[RCollar]
#Fr     Tx      Ty      Tz      Rx      Ry      Rz      SF
571	0.000000	0.000000	0.000000	6.790414	-2.113877	17.212107	1.000000	
572	0.000000	0.000000	0.000000	6.681352	-2.043813	16.933136	1.000000	
573	0.000000	0.000000	0.000000	6.604115	-1.981340	16.627518	1.000000	
574	0.000000	0.000000	0.000000	6.664157	-1.964395	16.351233	1.000000	
[RUpArm]
#Fr     Tx      Ty      Tz      Rx      Ry      Rz      SF
571	0.000000	0.000000	0.000000	27.672279	12.964047	44.864487	1.000000	
572	0.000000	0.000000	0.000000	26.888582	11.670053	43.981750	1.000000	
573	0.000000	0.000000	0.000000	26.325371	10.692315	42.944729	1.000000	
574	0.000000	0.000000	0.000000	26.067247	10.379333	41.738716	1.000000	
[RLowArm]
#Fr     Tx      Ty      Tz      Rx      Ry      Rz      SF
571	0.000000	0.000000	0.000000	116.596558	0.000173	0.000216	1.000000	
572	0.000000	0.000000	0.000000	116.369743	0.000173	0.000216	1.000000	
573	0.000000	0.000000	0.000000	115.588524	0.000174	0.000214	1.000000	
574	0.000000	0.000000	0.000000	114.188560	0.000175	0.000210	1.000000	
[RHand]
#Fr     Tx      Ty      Tz      Rx      Ry      Rz      SF
571	0.000000	0.000000	0.000000	-1.784509	-4.068208	-18.185968	1.000000	
572	0.000000	0.000000	0.000000	-1.857806	-1.948590	-17.488876	1.000000	
573	0.000000	0.000000	0.000000	-1.570212	-0.946017	-15.790260	1.000000	
574	0.000000	0.000000	0.000000	-0.833476	-1.264292	-13.214795	1.000000	
[RThigh]
#Fr     Tx      Ty      Tz      Rx      Ry      Rz      SF
571	0.000000	0.000000	0.000000	30.107586	27.890665	4.485314	1.000000	
572	0.000000	0.000000	0.000000	28.103012	26.745359	4.031592	1.000000	
573	0.000000	0.000000	0.000000	25.602890	25.287144	3.440449	1.000000	
574	0.000000	0.000000	0.000000	22.847681	23.467443	2.863730	1.000000	
[RLowLeg]
#Fr     Tx      Ty      Tz      Rx      Ry      Rz      SF
571	0.000000	0.000000	0.000000	-50.663147	0.000031	-0.000021	1.000000	
572	0.000000	0.000000	0.000000	-47.216293	0.000029	-0.000018	1.000000	
573	0.000000	0.000000	0.000000	-42.864403	0.000027	-0.000016	1.000000	
574	0.000000	0.000000	0.000000	-38.013092	0.000025	-0.000013	1.000000	
[RFoot]
#Fr     Tx      Ty      Tz      Rx      Ry      Rz      SF
571	0.000000	0.000000	0.000000	-18.719223	-0.001253	3.256019	1.000000	
572	0.000000	0.000000	0.000000	-18.042522	0.568489	4.600983	1.000000	
573	0.000000	0.000000	0.000000	-18.464630	1.081093	6.593543	1.000000	
574	0.000000	0.000000	0.000000	-19.496752	1.480398	8.612135	1.000000	
[RToe]
#Fr     Tx      Ty      Tz      Rx      Ry      Rz      SF
571	0.000000	0.000000	0.000000	9.319250	0.000004	0.000005	1.000000	
572	0.000000	0.000000	0.000000	8.902186	0.000003	0.000005	1.000000	
573	0.000000	0.000000	0.000000	8.646448	0.000003	0.000004	1.000000	
574	0.000000	0.000000	0.000000	8.563547	0.000003	0.000004	1.000000	
[LThigh]
#Fr     Tx      Ty      Tz      Rx      Ry      Rz      SF
571	0.000000	0.000000	0.000000	12.776759	-5.710114	0.598805	1.000000	
572	0.000000	0.000000	0.000000	12.173713	-5.119946	0.906651	1.000000	
573	0.000000	0.000000	0.000000	11.737211	-4.769094	1.147768	1.000000	
574	0.000000	0.000000	0.000000	11.635026	-4.874836	1.337851	1.000000	
[LLowLeg]
#Fr     Tx      Ty      Tz      Rx      Ry      Rz      SF
571	0.000000	0.000000	0.000000	-22.210701	0.000010	-0.000002	1.000000	
572	0.000000	0.000000	0.000000	-20.670694	0.000010	-0.000002	1.000000	
573	0.000000	0.000000	0.000000	-19.081520	0.000009	-0.000002	1.000000	
574	0.000000	0.000000	0.000000	-17.752310	0.000008	-0.000001	1.000000	
[LFoot]
#Fr     Tx      Ty      Tz      Rx      Ry      Rz      SF
571	0.000000	0.000000	0.000000	-4.818895	-3.125159	2.685067	1.000000	
572	0.000000	0.000000	0.000000	-7.147334	-3.866853	2.429878	1.000000	
573	0.000000	0.000000	0.000000	-9.631401	-4.356536	2.046451	1.000000	
574	0.000000	0.000000	0.000000	-12.059705	-4.412170	1.332497	1.000000	
[LToe]
#Fr     Tx      Ty      Tz      Rx      Ry      Rz      SF
571	0.000000	0.000000	0.000000	5.239956	0.000020	0.000000	1.000000	
572	0.000000	0.000000	0.000000	5.373565	0.000021	0.000000	1.000000	
573	0.000000	0.000000	0.000000	5.403281	0.000021	0.000000	1.000000	
574	0.000000	0.000000	0.000000	5.436335	0.000021	0.000000	1.000000	
[EndOfFile]
